<?xml version="1.0" encoding="UTF-8" standalone="no"?>
<svg
   width="75"
   height="75"
   viewBox="0 0 75 75"
   fill="none"
   version="1.1"
   id="svg12"
   sodipodi:docname="airplane.svg"
   inkscape:version="1.2 (dc2aedaf03, 2022-05-15)"
   xmlns:inkscape="http://www.inkscape.org/namespaces/inkscape"
   xmlns:sodipodi="http://sodipodi.sourceforge.net/DTD/sodipodi-0.dtd"
   xmlns="http://www.w3.org/2000/svg"
   xmlns:svg="http://www.w3.org/2000/svg">
  <defs
     id="defs16" />
  <sodipodi:namedview
     id="namedview14"
     pagecolor="#ffffff"
     bordercolor="#000000"
     borderopacity="0.25"
     inkscape:showpageshadow="2"
     inkscape:pageopacity="0.0"
     inkscape:pagecheckerboard="0"
     inkscape:deskcolor="#d1d1d1"
     showgrid="false"
     inkscape:zoom="3.1466667"
     inkscape:cx="37.5"
     inkscape:cy="37.5"
     inkscape:window-width="1280"
     inkscape:window-height="961"
     inkscape:window-x="-8"
     inkscape:window-y="-8"
     inkscape:window-maximized="1"
     inkscape:current-layer="svg12" />
  <path
     d="m 5.4492533,38.291043 21.5038997,10.752 v 11.8945 c 0,2.7972 1.1112,5.47984 3.0891,7.45777 1.9779,1.97792 4.6606,3.0891 7.4578,3.08911 2.7972,-1e-5 5.4798,-1.11119 7.4578,-3.08911 1.9779,-1.97793 3.0891,-4.66057 3.0891,-7.45777 v -11.8945 l 21.562461,-10.752 c 0.57855,-0.2952 1.06488,-0.7437 1.40587,-1.2965 0.34099,-0.5529 0.52354,-1.1887 0.52772,-1.8383 v -9.375 c 0.0019,-0.5223 -0.11273,-1.0385 -0.33541,-1.5111 -0.22268,-0.4725 -0.54787,-0.8895 -0.95191,-1.2206 -0.40404,-0.331 -0.87679,-0.5679 -1.38387,-0.6934 -0.50707,-0.1255 -1.03574,-0.1364 -1.54756,-0.0319 l -19.218701,3.8672 v -3.6328 l 3.6621,-3.6621 c 0.6507,-0.6664 1.0182,-1.5588 1.0254,-2.4903 V 7.0312436 c -0.0012,-0.575 -0.1434,-1.141 -0.4142,-1.6484 -0.2708,-0.5073 -0.662,-0.9404 -1.1391,-1.2614 -0.4772,-0.321 -1.0258,-0.5201 -1.5978,-0.5797 -0.5719,-0.0596 -1.1498,0.0219 -1.6829,0.2376 l -10.4004,4.1602 -10.4004,-4.1602 c -0.4184,-0.1719 -0.866,-0.2614 -1.3184,-0.2637 -0.7021,-0.0026 -1.3878,0.2123 -1.9629,0.6153 -0.4775,0.3183 -0.8691,0.7495 -1.14,1.2555 -0.2708,0.5059 -0.4126,1.0709 -0.4127,1.6448 v 9.3749994 c -0.0055,0.4584 0.0826,0.9131 0.2589,1.3363 0.1763,0.4231 0.4371,0.8058 0.7665,1.1247 l 3.6035,3.6621 v 3.6621 l -19.2479997,-3.8672 c -0.5075,-0.1029 -1.0315,-0.0905 -1.5336,0.0363 -0.502,0.1267 -0.9691,0.3647 -1.3668,0.6961 -0.4035,0.3302 -0.7284,0.746 -0.9514,1.2172 -0.2229,0.4712 -0.3383,0.9861 -0.3377,1.5074 v 9.375 c -0.0025,0.651 0.1773,1.2896 0.5191,1.8436 0.3417,0.554 0.8317,1.0013 1.4145,1.2912 z m 5.0976997,-8.2324 19.2187,3.8672 c 0.5118,0.1045 1.0405,0.0936 1.5476,-0.0319 0.5071,-0.1255 0.9798,-0.3624 1.3838,-0.6934 0.4041,-0.3311 0.7293,-0.7481 0.9519,-1.2206 0.2227,-0.4726 0.3373,-0.9888 0.3355,-1.5111 v -9.375 c -0.0023,-0.9238 -0.3711,-1.8089 -1.0254,-2.461 l -3.6035,-3.6621 v -2.7539 l 6.8847,2.7539 c 0.4178,0.1741 0.8658,0.2637 1.3184,0.2637 0.4525,0 0.9006,-0.0896 1.3183,-0.2637 l 6.8848,-2.7539 v 2.7246 l -3.6621,3.6621 c -0.6508,0.6664 -1.0183,1.5588 -1.0254,2.4903 v 9.375 c -0.0018,0.5223 0.1127,1.0385 0.3354,1.5111 0.2227,0.4725 0.5479,0.8895 0.9519,1.2206 0.4041,0.331 0.8768,0.5679 1.3839,0.6934 0.5071,0.1255 1.0357,0.1364 1.5476,0.0319 l 19.2187,-3.8672 v 2.9297 l -21.5039,10.7519 c -0.5828,0.2899 -1.0728,0.7372 -1.4145,1.2912 -0.3418,0.5541 -0.5216,1.1927 -0.5191,1.8436 v 14.0625 c 0,0.9324 -0.3704,1.8266 -1.0297,2.4859 -0.6593,0.6593 -1.5535,1.0297 -2.4859,1.0297 -0.9324,0 -1.8266,-0.3704 -2.4859,-1.0297 -0.6594,-0.6593 -1.0297,-1.5535 -1.0297,-2.4859 v -14.0625 c -3e-4,-0.654 -0.1844,-1.2948 -0.5315,-1.8491 -0.3471,-0.5544 -0.8432,-0.9999 -1.4314,-1.2857 l -21.4746,-10.7519 z"
     fill="#fcb500"
     id="path10" />
</svg>
